<svg width="500" height="500" viewBox="0 0 500 500" fill="none" xmlns="http://www.w3.org/2000/svg">
<circle cx="250" cy="250" r="225" fill="#1F2937"/>
<path d="M379.35 181.008C376.974 176.892 373.572 173.461 369.475 171.051C365.379 168.641 360.727 167.335 355.975 167.258H179.975L172 136.183C171.194 133.183 169.397 130.545 166.9 128.697C164.403 126.85 161.354 125.902 158.25 126.008H130.75C127.103 126.008 123.606 127.457 121.027 130.035C118.449 132.614 117 136.111 117 139.758C117 143.405 118.449 146.902 121.027 149.481C123.606 152.059 127.103 153.508 130.75 153.508H147.8L185.75 294.583C186.556 297.583 188.353 300.221 190.85 302.069C193.347 303.917 196.396 304.864 199.5 304.758H323.25C325.789 304.75 328.277 304.04 330.437 302.705C332.597 301.37 334.345 299.463 335.487 297.196L380.588 206.996C382.542 202.898 383.452 198.381 383.236 193.846C383.02 189.312 381.685 184.901 379.35 181.008Z" fill="#111827"/>
<path d="M192.625 373.508C204.016 373.508 213.25 364.274 213.25 352.883C213.25 341.492 204.016 332.258 192.625 332.258C181.234 332.258 172 341.492 172 352.883C172 364.274 181.234 373.508 192.625 373.508Z" fill="#111827"/>
<path d="M330.125 373.508C341.516 373.508 350.75 364.274 350.75 352.883C350.75 341.492 341.516 332.258 330.125 332.258C318.734 332.258 309.5 341.492 309.5 352.883C309.5 364.274 318.734 373.508 330.125 373.508Z" fill="#111827"/>
<path d="M288.335 215.824C285.583 213.84 283.215 212.4 281.231 211.504C279.247 210.544 276.943 210.064 274.319 210.064C269.071 210.064 264.559 211.408 260.783 214.096C257.903 216.208 255.759 218.96 254.351 222.352C252.943 225.744 252.239 229.552 252.239 233.776C252.239 237.808 253.167 241.36 255.023 244.432C256.879 247.44 259.279 249.744 262.223 251.344C265.167 252.944 268.239 253.744 271.439 253.744C274.639 253.744 277.391 253.264 279.695 252.304C282.063 251.28 283.951 249.968 285.359 248.368C287.535 245.616 288.623 241.968 288.623 237.424C288.623 236.784 288.111 236.336 287.087 236.08C286.063 235.824 284.591 235.696 282.671 235.696L275.759 235.792C273.903 235.792 272.431 235.44 271.343 234.736C270.255 234.032 269.711 233.136 269.711 232.048C269.711 230.512 270.223 229.392 271.247 228.688C272.271 227.92 273.647 227.536 275.375 227.536C277.423 227.536 280.175 227.664 283.631 227.92C287.087 228.176 289.583 228.304 291.119 228.304C293.359 228.304 295.151 229.008 296.495 230.416C297.903 231.824 298.607 233.872 298.607 236.56C298.607 239.056 298.063 241.968 296.975 245.296C295.887 248.624 294.351 251.6 292.367 254.224C290.447 256.784 287.599 258.736 283.823 260.08C280.111 261.36 275.983 262 271.439 262C267.663 262 264.015 261.392 260.495 260.176C256.975 258.96 254.031 257.264 251.663 255.088C248.719 252.336 246.383 249.072 244.655 245.296C242.991 241.456 242.159 237.648 242.159 233.872C242.159 228.368 243.439 223.024 245.999 217.84C248.623 212.592 252.143 208.528 256.559 205.648C258.479 204.368 261.167 203.312 264.623 202.48C268.079 201.648 271.247 201.232 274.127 201.232C278.607 201.232 282.543 201.936 285.935 203.344C289.327 204.688 291.919 206.64 293.711 209.2C294.479 210.352 294.863 211.376 294.863 212.272C294.863 213.296 294.415 214.256 293.519 215.152C292.623 216.048 291.727 216.496 290.831 216.496C290.447 216.496 289.999 216.432 289.487 216.304C288.975 216.176 288.591 216.016 288.335 215.824Z" fill="white"/>
</svg>
