<svg width="500" height="500" viewBox="0 0 500 500" fill="none" xmlns="http://www.w3.org/2000/svg">
<path d="M395.572 172.183C392.886 167.53 389.04 163.652 384.409 160.928C379.778 158.204 374.52 156.726 369.147 156.64H170.19L161.174 121.511C160.263 118.12 158.231 115.138 155.409 113.049C152.586 110.96 149.14 109.889 145.631 110.009H114.544C110.421 110.009 106.468 111.647 103.553 114.562C100.638 117.477 99 121.43 99 125.553C99 129.675 100.638 133.629 103.553 136.544C106.468 139.459 110.421 141.096 114.544 141.096H133.818L176.718 300.573C177.629 303.964 179.661 306.947 182.483 309.036C185.306 311.124 188.752 312.196 192.261 312.076H332.154C335.024 312.067 337.836 311.264 340.278 309.755C342.72 308.246 344.696 306.09 345.987 303.527L396.97 201.561C399.18 196.929 400.209 191.822 399.965 186.696C399.721 181.57 398.211 176.584 395.572 172.183Z" fill="#111827"/>
<path d="M184.49 389.794C197.366 389.794 207.805 379.355 207.805 366.478C207.805 353.601 197.366 343.163 184.49 343.163C171.613 343.163 161.174 353.601 161.174 366.478C161.174 379.355 171.613 389.794 184.49 389.794Z" fill="#111827"/>
<path d="M339.926 389.794C352.802 389.794 363.241 379.355 363.241 366.478C363.241 353.601 352.802 343.163 339.926 343.163C327.049 343.163 316.61 353.601 316.61 366.478C316.61 379.355 327.049 389.794 339.926 389.794Z" fill="#111827"/>
<path d="M288.335 215.824C285.583 213.84 283.215 212.4 281.231 211.504C279.247 210.544 276.943 210.064 274.319 210.064C269.071 210.064 264.559 211.408 260.783 214.096C257.903 216.208 255.759 218.96 254.351 222.352C252.943 225.744 252.239 229.552 252.239 233.776C252.239 237.808 253.167 241.36 255.023 244.432C256.879 247.44 259.279 249.744 262.223 251.344C265.167 252.944 268.239 253.744 271.439 253.744C274.639 253.744 277.391 253.264 279.695 252.304C282.063 251.28 283.951 249.968 285.359 248.368C287.535 245.616 288.623 241.968 288.623 237.424C288.623 236.784 288.111 236.336 287.087 236.08C286.063 235.824 284.591 235.696 282.671 235.696L275.759 235.792C273.903 235.792 272.431 235.44 271.343 234.736C270.255 234.032 269.711 233.136 269.711 232.048C269.711 230.512 270.223 229.392 271.247 228.688C272.271 227.92 273.647 227.536 275.375 227.536C277.423 227.536 280.175 227.664 283.631 227.92C287.087 228.176 289.583 228.304 291.119 228.304C293.359 228.304 295.151 229.008 296.495 230.416C297.903 231.824 298.607 233.872 298.607 236.56C298.607 239.056 298.063 241.968 296.975 245.296C295.887 248.624 294.351 251.6 292.367 254.224C290.447 256.784 287.599 258.736 283.823 260.08C280.111 261.36 275.983 262 271.439 262C267.663 262 264.015 261.392 260.495 260.176C256.975 258.96 254.031 257.264 251.663 255.088C248.719 252.336 246.383 249.072 244.655 245.296C242.991 241.456 242.159 237.648 242.159 233.872C242.159 228.368 243.439 223.024 245.999 217.84C248.623 212.592 252.143 208.528 256.559 205.648C258.479 204.368 261.167 203.312 264.623 202.48C268.079 201.648 271.247 201.232 274.127 201.232C278.607 201.232 282.543 201.936 285.935 203.344C289.327 204.688 291.919 206.64 293.711 209.2C294.479 210.352 294.863 211.376 294.863 212.272C294.863 213.296 294.415 214.256 293.519 215.152C292.623 216.048 291.727 216.496 290.831 216.496C290.447 216.496 289.999 216.432 289.487 216.304C288.975 216.176 288.591 216.016 288.335 215.824Z" fill="white"/>
</svg>
